<?xml version="1.0"?>
<svg xmlns="http://www.w3.org/2000/svg" viewBox="0 0 64 64" width="512" height="512"><g id="Outline"><g><path d="M55.654,26.743a3.819,3.819,0,0,1,3.642.967A1,1,0,0,0,61,27V24a4,4,0,0,0-3.992-4,1.016,1.016,0,0,0,.361-.07A1,1,0,0,0,58,19a5.631,5.631,0,0,0-8.881-4.6,12.056,12.056,0,0,0-4.4,5.8l-2.539,7.111-3.43,1.21a18.082,18.082,0,0,1-4.01.919,1,1,0,1,0,.22,1.987,20.041,20.041,0,0,0,4.456-1.02l3.685-1.3a7.528,7.528,0,0,1,.389.843A11.479,11.479,0,0,1,35.5,33a1,1,0,0,0,0,2,13.714,13.714,0,0,0,8.475-2.821c0,.107.025.214.025.321a6.874,6.874,0,0,1-.089,1.049A11.472,11.472,0,0,1,35.5,37a12.393,12.393,0,0,1-4.737-.915A1,1,0,0,0,30,37.935a14.515,14.515,0,0,0,12.047-.517A11.388,11.388,0,0,1,33.5,41c-4.821,0-8.848-2.593-10.086-6.185l.071.042A1,1,0,0,0,25,34V30.153l5.858.837a1,1,0,0,0,.73-1.8l-2.941-2.138a30.9,30.9,0,0,1-6.708-6.707l1.6-4a4.092,4.092,0,0,1,.911-1.382l3.257-3.257a1,1,0,0,0-.391-1.656l-2.106-.7a6.077,6.077,0,0,0-6.273,1.485,3.433,3.433,0,0,1-.24-2.486,1,1,0,0,0-1.927-.536,5.494,5.494,0,0,0,.908,4.765l.414.547a1,1,0,0,0,1.654-.09,4.09,4.09,0,0,1,4.831-1.787l.572.19L23.036,13.55A6.1,6.1,0,0,0,21.681,15.6l-1.1,2.746c-.272-.44-.536-.884-.784-1.336a6.147,6.147,0,0,0-10.64-.269L7.118,14.7a4.119,4.119,0,0,1-.165-5.645L9.581,6.1a10.864,10.864,0,0,0,1.565,5.418,1,1,0,0,0,1.825-.28l.506-2.052a.9.9,0,0,0,.022-.115A4.11,4.11,0,0,1,17.073,5.5l4.051-.507a1,1,0,1,0-.248-1.984l-4.051.506A6.112,6.112,0,0,0,11.763,7.7a8.838,8.838,0,0,1,.074-3.926l.133-.531a1,1,0,0,0-1.718-.908L5.458,7.73A6.121,6.121,0,0,0,5.7,16.118l2.649,2.649A6.1,6.1,0,0,0,8.214,20.3a.879.879,0,0,0,.012.115l.085.509L3.445,24.168a1,1,0,0,0,.413,1.822l4.372.624a20.957,20.957,0,0,1-2.964,4.954,3.993,3.993,0,0,0,3.053,6.4l.117,0a4.007,4.007,0,0,0,2.556-.931l.022.129a1,1,0,0,0,.837.825A.943.943,0,0,0,12,38a1,1,0,0,0,.895-.553l.116-.232a19.961,19.961,0,0,0,5.364,6.9,4.828,4.828,0,0,0-.059,3.584l-3.655,6.33a4,4,0,0,0-4.527,1.841,1,1,0,1,0,1.732,1,2,2,0,0,1,2.732-.732l2.964,1.711V59a1,1,0,0,0,2,0V57.536l3.788-6.56A4.951,4.951,0,0,0,27.4,48.344c.3.059.58.106.855.145a5.007,5.007,0,0,0,4.271,3.467l2.716,4.7a4,4,0,0,0-.669,4.841,1,1,0,0,0,1.732-1,2,2,0,0,1,.732-2.732l2.9-1.674.473.347a1,1,0,1,0,1.182-1.614l-.83-.608-3.116-5.4a4.956,4.956,0,0,0,.3-1.326,20.04,20.04,0,0,0,6.029-3.451,1,1,0,0,0-1.28-1.536,18.092,18.092,0,0,1-14.123,4.008c-.466-.067-.958-.162-1.551-.3a1.006,1.006,0,0,0-1.18.675,2.989,2.989,0,1,1-5.362-2.513,1,1,0,0,0-.237-1.339,17.982,17.982,0,0,1-6.057-8.182l.223-.445,4.073,2.444A1,1,0,0,0,20,36V32.766l1.075.645C21.625,38.83,26.951,43,33.5,43,40.393,43,46,38.29,46,32.5a9.093,9.093,0,0,0-.983-4.065l.146-.051a3.413,3.413,0,0,1,4.182,1.689l.058.116a3.716,3.716,0,0,0-.571,2.259,3.665,3.665,0,0,0,.216.964v0l0,.006A3.7,3.7,0,0,0,50.111,35H50a1,1,0,0,0-.98,1.2l.72,3.6a8.818,8.818,0,0,0-4.111.732,1,1,0,0,0,.8,1.834,6.773,6.773,0,0,1,4.336-.393A1,1,0,0,0,51.98,40.8L51.22,37H53a1,1,0,0,0,.617-1.787l-1.788-1.4a5.289,5.289,0,0,1,5.085,3.014l2.182,4.6A1,1,0,0,0,60,42a1.043,1.043,0,0,0,.22-.024A1,1,0,0,0,61,41v-6.3a6.6,6.6,0,0,0-2.488-5.176,1,1,0,0,0-1.249,1.562A4.606,4.606,0,0,1,59,34.705v1.852l-.279-.588A7.288,7.288,0,0,0,50.848,31.9,1.7,1.7,0,0,1,51.3,31a1,1,0,0,0,.173-1.139l-.339-.677a5.409,5.409,0,0,0-6.526-2.709l2-5.594a10.07,10.07,0,0,1,3.67-4.845,3.557,3.557,0,0,1,3.754-.261A3.661,3.661,0,0,1,55.3,16.837a5.293,5.293,0,0,0-1.443-.2h-.021a5.327,5.327,0,0,0-3.865,1.693,4.486,4.486,0,0,0-1.12,3.866l.34,1.818a1,1,0,0,0,1.69.523A8.6,8.6,0,0,1,57,22a2,2,0,0,1,2,2v1.116a5.885,5.885,0,0,0-3.829-.314,2.713,2.713,0,0,0-.654,5,1,1,0,0,0,.968-1.75.7.7,0,0,1-.36-.718A.682.682,0,0,1,55.654,26.743ZM36.391,50.652l2.243,3.884-1.732,1-2.221-3.848A4.973,4.973,0,0,0,36.391,50.652Zm-.622-2.5a2.971,2.971,0,0,1-5.218.537A20.061,20.061,0,0,0,35.769,48.149Zm-14.546,2.51L18.2,55.9l-1.732-1,3.068-5.314A5.013,5.013,0,0,0,21.223,50.659ZM8.671,23.088,8.939,24.7,6.732,24.38ZM9.944,35.3a1.975,1.975,0,0,1-1.568.663,2,2,0,0,1-1.789-1.289,1.979,1.979,0,0,1,.273-1.9,26.372,26.372,0,0,0,2.716-4.251l.86,5.166A2.006,2.006,0,0,1,9.944,35.3Zm9.571-5.159A1,1,0,0,0,18,31v3.234l-3.485-2.091a1,1,0,0,0-1.41.41L12.481,33.8,10.209,20.146a4.179,4.179,0,0,1,7.837-2.168A32.941,32.941,0,0,0,27.16,28.441l-3.018-.431A1,1,0,0,0,23,29v3.234Zm31.323-8.185-.024-.131a2.475,2.475,0,0,1,.619-2.136,3.277,3.277,0,0,1,2.408-1.055h.014a3.286,3.286,0,0,1,2.417,1.05,1,1,0,0,0,.72.314A10.585,10.585,0,0,0,50.838,21.958Z"/><path d="M15,18a3,3,0,1,0,3,3A3,3,0,0,0,15,18Zm0,4a1,1,0,1,1,1-1A1,1,0,0,1,15,22Z"/></g></g></svg>
