<?xml version="1.0"?>
<svg xmlns="http://www.w3.org/2000/svg" viewBox="0 0 64 64" width="512" height="512"><g id="Outline"><g><path d="M62,25a1,1,0,0,0-1-1H37.109a24.981,24.981,0,0,1,1.349-6H52.251a1,1,0,1,0,0-2H39.287a20.746,20.746,0,0,1,1.057-2H53.66a23.611,23.611,0,0,1,2.518,6H40.552a1,1,0,0,0,0,2h16.9a1,1,0,0,0,.978-1.209C56.959,13.938,52.564,7,47,7c-2.722,0-5.17,1.64-7.14,4.149l-.01-.016c-.009-.015-.017-.029-.027-.043C37.586,7.8,34.849,6,32,6c-2.769,0-5.517,1.76-7.737,4.957A1,1,0,1,0,25.905,12.1C27.741,9.455,29.905,8,32,8a6.955,6.955,0,0,1,4.931,2.655,5.426,5.426,0,0,0-1.378.45,3.491,3.491,0,0,1-3.106,0A5.493,5.493,0,0,0,30,10.528a1,1,0,0,0,0,2,3.487,3.487,0,0,1,1.553.367,5.5,5.5,0,0,0,4.894,0,3.479,3.479,0,0,1,1.944-.331c.077.119.153.243.229.367a24.73,24.73,0,0,0-2.576,5.992c-.163.062-.341.107-.491.182a3.484,3.484,0,0,1-3.106,0,5.505,5.505,0,0,0-4.894,0,3.413,3.413,0,0,1-1.085.306q-.355-1.005-.782-1.96a5.479,5.479,0,0,0,2.761-.556,3.484,3.484,0,0,1,3.106,0A5.5,5.5,0,0,0,34,17.472c.073,0,.145,0,.217,0a1,1,0,1,0-.08-2,3.544,3.544,0,0,1-1.692-.365,5.505,5.505,0,0,0-4.894,0,3.482,3.482,0,0,1-3.064.015C22.356,11.528,19.394,9,16,9a7.867,7.867,0,0,0-4.915,1.893,1,1,0,0,0,1.244,1.566,8.315,8.315,0,0,1,.821-.569,2.98,2.98,0,0,0,5.7,0A12.445,12.445,0,0,1,22.8,16.256a2.987,2.987,0,1,0,2.3,5.512c.207.738.384,1.484.521,2.232H6.379c.136-.753.31-1.5.514-2.235A2.97,2.97,0,0,0,8,22a3,3,0,0,0,1.18-5.757q.317-.54.659-1.042a1,1,0,0,0-1.651-1.129A25.465,25.465,0,0,0,4.354,24H3a1,1,0,0,0-1,1v3A29.81,29.81,0,0,0,4.234,39.362,24.668,24.668,0,0,0,5.7,51.278a1,1,0,0,0,1.873-.7,25.364,25.364,0,0,1-.954-3.207c.159.015.318.027.477.027a4.99,4.99,0,1,0-.327-9.968A6.024,6.024,0,0,1,9.29,34.2c1.872-1.082,4.6-.837,7.589.636a4.985,4.985,0,0,0,6.339,7.488,4.866,4.866,0,0,0,1.337-1.147,22.273,22.273,0,0,1,1.895,2.745c3.444,5.965,2.262,11.4-3.16,14.526a10.748,10.748,0,0,1-4.839,1.524,4.92,4.92,0,0,0-.626-2.988A4.892,4.892,0,0,0,10.3,55.668a16.568,16.568,0,0,1-1.093-1.623,1,1,0,0,0-1.725,1.013C10.156,59.612,13.91,62,18,62a12.586,12.586,0,0,0,6.29-1.819,13.714,13.714,0,0,0,3.2-2.545,28.884,28.884,0,0,0,10.776-.315A11.54,11.54,0,0,0,48,62c5.8,0,12-3.415,12-13,0-8.787-5.242-19-12-19-2.993,0-5.687,2.005-7.761,5h-13.6a1,1,0,0,0,0,2H39.021a25.106,25.106,0,0,0-1.7,4h-10.4a26.237,26.237,0,0,0-1.774-2.216c-.017-.018-.031-.035-.049-.052a26.1,26.1,0,0,0-5.927-4.923l-.022-.013c-.059-.035-.116-.076-.175-.11C14.861,31.3,11.066,30.869,8.29,32.47a7.657,7.657,0,0,0-3.1,3.605A27.83,27.83,0,0,1,4.078,30H42.514a1,1,0,1,0,0-2H4V26H60v2H53.967a1,1,0,0,0,0,2h5.956a27.851,27.851,0,0,1-1.264,6.569,1,1,0,0,0,1.9.613,29.846,29.846,0,0,0,1.395-8.1A.727.727,0,0,0,61.975,29a.488.488,0,0,0-.012-.055c.01-.315.037-.629.037-.945ZM16,12a.992.992,0,0,1-.978-.89,4.383,4.383,0,0,1,1.956,0A.992.992,0,0,1,16,12ZM9,19a1,1,0,0,1-1,1,.99.99,0,0,1-.506-.143c.228-.624.485-1.225.756-1.812A1.022,1.022,0,0,1,9,19Zm7.093,38.986a2.942,2.942,0,0,1,.36,1.856,9.433,9.433,0,0,1-4.841-2.67A2.918,2.918,0,0,1,12,56.888,3,3,0,0,1,16.093,57.986Zm12.781-2.169C30.84,52.6,31.227,48.255,28.222,43h8.53A25.442,25.442,0,0,0,36,49a15.7,15.7,0,0,0,1.257,6.5A27.893,27.893,0,0,1,28.874,55.817Zm14.833-17.11a1.874,1.874,0,0,1,2.586,0,3.831,3.831,0,0,0,5.414,0,1.874,1.874,0,0,1,2.586,0,3.733,3.733,0,0,0,1.716.98,25.189,25.189,0,0,1,1.341,4.095,1.829,1.829,0,0,1-1.643-.489,3.832,3.832,0,0,0-5.414,0,1.831,1.831,0,0,1-2.586,0,3.832,3.832,0,0,0-5.414,0,1.831,1.831,0,0,1-2.586,0,3.713,3.713,0,0,0-.779-.593,25.081,25.081,0,0,1,1.065-3.017A3.836,3.836,0,0,0,43.707,38.707Zm12,16.586a3.832,3.832,0,0,0-5.414,0,1.831,1.831,0,0,1-2.586,0,3.832,3.832,0,0,0-5.414,0,1.831,1.831,0,0,1-2.586,0,3.47,3.47,0,0,0-.507-.409,12.558,12.558,0,0,1-1.127-4.358,1.888,1.888,0,0,1,.22.181,3.832,3.832,0,0,0,5.414,0,1.831,1.831,0,0,1,2.586,0,3.831,3.831,0,0,0,5.414,0,1.874,1.874,0,0,1,2.586,0,3.826,3.826,0,0,0,3.48,1.025,11.261,11.261,0,0,1-1.413,3.973A1.73,1.73,0,0,1,55.707,55.293ZM58,49c0,.183-.013.357-.019.536a1.836,1.836,0,0,1-2.274-.243,3.832,3.832,0,0,0-5.414,0,1.831,1.831,0,0,1-2.586,0,3.832,3.832,0,0,0-5.414,0,1.874,1.874,0,0,1-2.586,0,3.788,3.788,0,0,0-1.682-.965,22.689,22.689,0,0,1,.4-3.515,3.823,3.823,0,0,0,5.284-.106,1.831,1.831,0,0,1,2.586,0,3.831,3.831,0,0,0,5.414,0,1.874,1.874,0,0,1,2.586,0,3.84,3.84,0,0,0,3.442,1.036A21.662,21.662,0,0,1,58,49ZM41.384,57.791a3.789,3.789,0,0,0,2.323-1.084,1.874,1.874,0,0,1,2.586,0,3.832,3.832,0,0,0,5.414,0,1.831,1.831,0,0,1,2.586,0,3.735,3.735,0,0,0,.823.6A9.629,9.629,0,0,1,48,60,9.871,9.871,0,0,1,41.384,57.791ZM48,32c2.344,0,4.541,1.773,6.276,4.4a3.822,3.822,0,0,0-3.983.889,1.831,1.831,0,0,1-2.586,0,3.832,3.832,0,0,0-5.414,0,1.808,1.808,0,0,1-1.4.506C42.729,34.419,45.263,32,48,32ZM23.208,39.635a2.91,2.91,0,0,1-.99.959,2.993,2.993,0,0,1-3.571-4.752A24.073,24.073,0,0,1,23.208,39.635ZM9.691,40.9a3,3,0,0,1-1.1,4.1,2.969,2.969,0,0,1-2.364.251,19.17,19.17,0,0,1-.017-5.689A2.987,2.987,0,0,1,9.691,40.9ZM47,9c1.927,0,3.718,1.185,5.237,3H41.758C43.294,10.166,45.094,9,47,9ZM24,20a1,1,0,0,1-1-1,1.019,1.019,0,0,1,.735-.947c.272.588.527,1.193.756,1.815A.994.994,0,0,1,24,20Zm3.07,1.358a5.359,5.359,0,0,0,1.377-.463,3.484,3.484,0,0,1,3.106,0,5.422,5.422,0,0,0,3.933.361A25.89,25.89,0,0,0,35.1,24H27.646C27.5,23.114,27.306,22.231,27.07,21.358Z"/><path d="M16,18a1,1,0,0,1,1,1,1,1,0,0,0,2,0,3,3,0,1,0-3,3,1,1,0,0,0,0-2,1,1,0,0,1,0-2Z"/><path d="M21.9,55.021a5,5,0,1,0-4.339-2.5A4.975,4.975,0,0,0,21.9,55.021Zm-1.508-7.6a3,3,0,1,1-1.1,4.1A2.979,2.979,0,0,1,20.388,47.424Z"/></g></g></svg>
