<svg height="510pt" viewBox="0 0 510 510.81692" width="510pt" xmlns="http://www.w3.org/2000/svg"><path d="m475.722656 152.332031c-43.605468-72.023437-132.777344-160.683593-165.117187-141.140625-1.585938.953125-2.996094 2.164063-4.183594 3.582032-.425781.425781-.769531.855468-1.195313 1.367187-1.820312 2.433594-3.179687 5.179687-4.007812 8.105469-.335938.953125-.621094 1.921875-.855469 2.902344-.085937.167968-.085937.253906-.171875.425781-.167968 1.023437-.425781 2.046875-.597656 3.070312-.253906 1.28125-.425781 2.730469-.59375 4.183594-.238281 1.441406-.378906 2.894531-.429688 4.351563-28.359374-8.304688-58.507812-8.304688-86.867187 0-.085937-1.535157-.257813-3.070313-.425781-4.4375-.171875-1.367188-.34375-2.816407-.597656-4.179688l-.511719-2.5625c-.074219-.433594-.191407-.863281-.34375-1.277344-.1875-.78125-.414063-1.550781-.683594-2.304687-.246094-.878907-.558594-1.734375-.9375-2.5625-.414063-1.054688-.898437-2.078125-1.449219-3.070313-.519531-.914062-1.089844-1.796875-1.707031-2.644531-.328125-.515625-.730469-.976563-1.195313-1.367187-1.183593-1.417969-2.597656-2.628907-4.179687-3.582032-32.34375-19.542968-121.515625 69.117188-165.121094 141.140625-43.605469 72.019531-24.746093 100.179688 7.507813 119.722657l4.351562 2.558593c4.292969 2.386719 8.773438 4.414063 13.398438 6.058594 2.953125 1.035156 5.976562 1.859375 9.046875 2.476563 3.042969.542968 6.125.832031 9.214843.851562 1.566407 0 3.132813-.085938 4.691407-.253906 1.539062-.171875 3.074219-.34375 4.695312-.683594.160157-.070312.335938-.097656.511719-.085938 1.445312-.320312 2.867188-.71875 4.265625-1.195312 1.621094-.511719 3.242187-1.109375 4.867187-1.789062 2.726563-1.199219 5.378907-2.566407 7.933594-4.097657l15.789063-12.542969c2.472656-2.390624 4.949219-5.035156 7.507812-7.9375 6.34375-7.425781 12.1875-15.265624 17.492188-23.464843-2.984375-1.648438-5.820313-3.414063-8.53125-5.25 2.746093 1.828125 5.5625 3.601562 8.53125 5.25 7.480469 4.085937 15.304687 7.511719 23.382812 10.238281v.085938c-2.390625 4.777343-4.695312 9.558593-6.65625 14.507812-.277343.515625-.507812 1.058594-.683593 1.621094-.171876.339844-.253907.597656-.425782.9375-.320312.695312-.605468 1.40625-.855468 2.132812-.101563.410156-.246094.8125-.425782 1.195313-9.867187 26.921875-15.175781 55.300781-15.699218 83.96875-.085938 2.386719-.171876 4.863281-.171876 7.335937-.085937 1.027344-.085937 2.136719-.085937 3.246094 0 3.582031.085937 7.507812.257813 11.519531 0 1.109375 0 2.300781.085937 3.410157.082031 2.21875.167969 4.355468.339844 6.574218l.253906 4.09375c.015625.628906.074219 1.257813.171875 1.878906 1.351562 18.773438 3.714844 37.460938 7.082031 55.976563.941407 5.460937 2.132813 10.921875 3.328125 16.386719.085938.59375.257813 1.277344.425782 2.046875 5.546874 23.378906 12.460937 40.875 20.054687 43.007812.507813.097657 1.019531.15625 1.535156.171875 8.484375 0 16.085938-8.6875 21.957031-23 18.148438 4.359375 36.78125 6.355469 55.441407 5.933594 18.667969.40625 37.3125-1.601562 55.46875-5.976562 5.867187 14.320312 13.472656 23.042968 21.953125 23.042968.699218.011719 1.394531-.105468 2.050781-.34375 6.65625-2.472656 12.714844-16.554687 17.746094-35.753906.171875-.683594.257812-1.28125.429687-1.792969.597656-2.304687 1.195313-4.691406 1.707032-7.082031.339843-1.363281.679687-2.816406.9375-4.265625.511718-2.21875 1.023437-4.351563 1.363281-6.570313.511719-2.21875.941406-4.523437 1.28125-6.742187.339843-2.21875.855469-4.609375 1.195312-6.914063 3.082031 2.988282 6.703125 5.359376 10.667969 7 4.160156 1.816407 8.65625 2.746094 13.199219 2.730469 18.851562 0 34.132812-15.28125 34.132812-34.132812 0-18.851563-15.28125-34.132813-34.132812-34.132813-1.917969-.003906-3.832031.167969-5.71875.511719-4.28125.746094-8.390625 2.277344-12.117188 4.519531.257813-3.839844.511719-7.59375.597657-11.433594.085937-3.839843.171874-7.253906.171874-10.664062 0-3.414062-.085937-6.828125-.257812-10.242188v-.339843l.257812-6.488281c0-2.558594-.085937-5.117188-.257812-7.679688-.082031-3.242188-.425781-6.570312-.765625-9.898438.171875-.167968.425781-.253906.597656-.425781-.257812-3.582031-.511719-7.167969-.941406-10.667969-1.484375-13.445312-4.816406-26.625-9.898437-39.167968-.339844.085937-.679688.257812-.9375.34375-.9375-2.730469-1.875-5.375-2.902344-8.023438-1.023438-2.644531-2.046875-5.289062-3.242188-7.847656-1.960937-4.949219-4.265625-9.730469-6.65625-14.507812v-.085938c8.078125-2.726562 15.902344-6.152344 23.382813-10.238281 3.113281-1.707031 6.050781-3.542969 8.882812-5.445313-2.824219 1.902344-5.75 3.746094-8.882812 5.445313 3.839843 5.800781 7.507812 11.089843 11.265625 15.785156 1.023437 1.363281 2.046875 2.730469 3.15625 4.011719 1.109375 1.277344 2.046875 2.472656 3.070312 3.667968 2.5625 2.902344 5.035156 5.546876 7.511719 7.9375l15.785156 12.542969c2.554688 1.53125 5.207031 2.898438 7.9375 4.097657 1.621094.679687 3.242188 1.277343 4.863281 1.789062 1.398438.476562 2.824219.875 4.265626 1.195312.175781-.011718.351562.015626.511718.085938 1.621094.339844 3.15625.511719 4.695313.683594 1.558593.167968 3.125.253906 4.691406.253906 3.089844-.019531 6.175781-.308594 9.214844-.851562 3.070312-.617188 6.09375-1.441407 9.046875-2.476563 4.609375-1.679687 9.089844-3.707031 13.398437-6.058594l4.351563-2.558593c32.253906-19.542969 51.027344-47.703126 7.507812-119.722657zm-67.496094 3.242188c-1.207031-11.226563-4.246093-22.183594-8.996093-32.425781 6.039062 12.792968 9.277343 26.726562 9.507812 40.875-.015625 3.386718-.253906 6.769531-.71875 10.128906.464844-3.359375.703125-6.742188.71875-10.128906 0-2.824219-.171875-5.644532-.511719-8.449219zm-37.941406-73.71875c-.851562-.90625-1.78125-1.808594-2.703125-2.707031.921875.898437 1.808594 1.800781 2.703125 2.707031zm-6.238281-5.972657c-.851563-.855468-1.789063-1.648437-2.710937-2.449218.921874.800781 1.816406 1.628906 2.710937 2.449218zm-6.707031-5.777343c-.851563-.710938-1.707032-1.433594-2.609375-2.132813.886719.699219 1.738281 1.421875 2.609375 2.132813zm-7.335938-5.660157c-.753906-.542968-1.476562-1.109374-2.238281-1.644531.761719.535157 1.484375 1.101563 2.238281 1.644531zm26.085938 23.585938c-.871094-.984375-1.753906-1.957031-2.648438-2.917969.902344.96875 1.78125 1.941407 2.648438 2.917969zm22.40625 33.476562c-.707032-1.507812-1.484375-3.003906-2.261719-4.496093.761719 1.492187 1.539063 2.980469 2.261719 4.496093zm-3.550782-6.960937c-.730468-1.339844-1.515624-2.664063-2.300781-3.996094.734375 1.332031 1.585938 2.65625 2.285157 3.996094zm-4.035156-6.828125c-.757812-1.21875-1.5625-2.429688-2.371094-3.632812.792969 1.175781 1.59375 2.386718 2.355469 3.609374zm-4.496094-6.722656c-.800781-1.140625-1.625-2.257813-2.464843-3.363282.835937 1.105469 1.652343 2.214844 2.449219 3.335938zm-4.984374-6.605469c-.851563-1.058594-1.707032-2.097656-2.558594-3.140625.902344 1.066406 1.75 2.109375 2.558594 3.140625zm2.390624 123.988281c1.945313-1.707031 3.78125-3.539062 5.519532-5.402344-1.738282 1.863282-3.566406 3.671876-5.519532 5.402344zm6.953126-6.886718c2.15625-2.425782 4.152343-4.992188 5.972656-7.679688-1.804688 2.6875-3.785156 5.253906-5.929688 7.679688zm6.484374-8.464844c1.550782-2.351563 2.953126-4.796875 4.207032-7.320313-1.25 2.523438-2.65625 4.96875-4.207032 7.320313zm5.371094-9.90625c.902344-2.03125 1.710938-4.109375 2.421875-6.230469-.707031 2.132813-1.519531 4.199219-2.421875 6.230469zm3.410156-9.328125c.605469-2.167969 1.085938-4.402344 1.484376-6.671875-.433594 2.269531-.910157 4.503906-1.515626 6.671875zm-79.734374-132.667969 14.164062 6.828125-34.132812-16.382813zm-224.050782 123.042969c-.460937-3.363281-.703125-6.75-.71875-10.144531.234375-14.132813 3.476563-28.050782 9.507813-40.832032-4.75 10.242188-7.789063 21.199219-8.992188 32.425782-.34375 2.804687-.511719 5.625-.515625 8.449218.019532 3.378906.257813 6.753906.71875 10.101563zm19.515625 39.628906c1.433594 1.492187 2.902344 2.96875 4.472657 4.378906-1.570313-1.410156-3.039063-2.886719-4.472657-4.378906zm-8.039062-9.675781c1.75 2.546875 3.65625 4.980468 5.710937 7.285156-2.054687-2.304688-3.960937-4.738281-5.710937-7.285156zm-10.921875-26.890625c.390625 2.230469.851562 4.414062 1.460937 6.539062-.597656-2.125-1.027343-4.308593-1.460937-6.539062zm2.492187 9.855469c.664063 1.980468 1.425781 3.910156 2.261719 5.804687-.835938-1.894531-1.597656-3.78125-2.261719-5.804687zm3.660157 8.875c1.039062 2.023437 2.175781 3.992187 3.414062 5.898437-1.238281-1.914063-2.378906-3.890625-3.414062-5.921875zm22.441406-104.683594c-.851563 1.039062-1.707032 2.082031-2.558594 3.136718.851562-1.054687 1.65625-2.097656 2.558594-3.136718zm-5.035156 6.328125c-.847657 1.140625-1.667969 2.261719-2.464844 3.363281.785156-1.125 1.597656-2.246094 2.441406-3.363281zm-4.589844 6.453125c-.851563 1.203125-1.613282 2.414062-2.371094 3.636718.734375-1.222656 1.535156-2.433593 2.347656-3.636718zm-4.105469 6.492187c-.785156 1.332031-1.570313 2.65625-2.300781 3.996094.671875-1.339844 1.527344-2.664063 2.277344-3.996094zm-3.589844 6.460938c-.777343 1.492187-1.554687 2.988281-2.261719 4.496093.683594-1.515624 1.457032-3.003906 2.234376-4.496093zm22.773438-31.898438c-.898438.96875-1.78125 1.941407-2.644531 2.917969.851562-.984375 1.726562-1.957031 2.621093-2.917969zm5.863281-5.972656c-.921875.898437-1.808594 1.800781-2.703125 2.707031.867187-.898437 1.757813-1.800781 2.675781-2.699218zm19.789062-16.324219c-.757812.539063-1.484374 1.101563-2.234374 1.648438.75-.5625 1.476562-1.128906 2.234374-1.648438zm-6.964843 5.171875c-.851563.699219-1.707031 1.425781-2.609375 2.132813.871094-.726563 1.722656-1.449219 2.609375-2.183594zm-6.601563 5.460938c-.921875.800781-1.820312 1.628906-2.714844 2.449219.894532-.835938 1.792969-1.664063 2.714844-2.464844zm20.863282-15.496094 14.847656-7.167969 19.285156-9.214844zm-37.804688 165.035156c-.792969-.605469-1.484375-1.261719-2.25-1.886719 1.484375 1.203126 2.992188 2.390626 4.570312 3.523438-.757812-.527344-1.585937-1.066406-2.320312-1.636719zm249.394531-2.5625c-.851562.734375-1.703125 1.503907-2.609375 2.210938-.90625.710937-2.160156 1.527343-3.234375 2.289062 2.03125-1.433593 3.992188-2.929687 5.878907-4.488281zm0 0" fill="#e6e7e8"/><path d="m211.703125 39.179688c-2.644531.683593-5.207031 1.535156-7.765625 2.390624l-19.285156 9.214844-14.847656 7.167969c-41.132813 25.769531-68.269532 67.667969-68.269532 106.070313-.101562 23.453124 11.273438 45.476562 30.464844 58.964843 4.371094 3.335938 8.992188 6.332031 13.824219 8.960938-5.304688 8.199219-11.148438 16.039062-17.492188 23.464843-2.558593 2.902344-5.035156 5.546876-7.507812 7.9375l-15.789063 12.542969c-2.554687 1.53125-5.207031 2.898438-7.933594 4.097657-1.625.679687-3.246093 1.277343-4.867187 1.789062-1.398437.476562-2.820313.875-4.265625 1.195312-.175781-.011718-.351562.015626-.511719.085938-1.621093.339844-3.15625.511719-4.695312.683594-1.558594.167968-3.125.253906-4.691407.253906-3.089843-.019531-6.171874-.308594-9.214843-.851562-3.070313-.617188-6.09375-1.441407-9.046875-2.476563-4.609375-1.679687-9.089844-3.707031-13.398438-6.058594l-4.351562-2.558593c-32.253906-19.542969-51.027344-47.703126-7.507813-119.722657 43.519531-72.023437 132.777344-160.683593 165.121094-141.140625 1.582031.953125 2.996094 2.164063 4.179687 3.582032.464844.390624.867188.851562 1.195313 1.367187.617187.847656 1.1875 1.730469 1.707031 2.644531.550782.992188 1.035156 2.015625 1.449219 3.070313.378906.828125.691406 1.683593.9375 2.5625.269531.753906.496094 1.523437.683594 2.304687.152343.414063.269531.84375.34375 1.277344l.511719 2.5625c.253906 1.363281.425781 2.730469.597656 4.179688.167968 1.449218.339844 2.902343.425781 4.4375zm0 0" fill="#cfd8dc"/><g fill="#bdc3c7"><path d="m97.101562 279.992188c-1.707031.679687-3.246093 1.277343-4.867187 1.789062-1.449219.511719-2.898437.855469-4.265625 1.195312"/><path d="m87.457031 283.0625c-1.621093.339844-3.15625.511719-4.695312.683594-1.558594.167968-3.125.253906-4.691407.253906"/><path d="m68.855469 283.148438c-3.070313-.617188-6.09375-1.441407-9.046875-2.476563-4.625-1.644531-9.105469-3.671875-13.398438-6.058594"/><path d="m205.046875 16.140625c-.351563-.496094-.753906-.953125-1.195313-1.367187"/></g><path d="m468.214844 272.054688-4.351563 2.558593c-4.308593 2.351563-8.789062 4.378907-13.398437 6.058594-2.953125 1.035156-5.976563 1.859375-9.046875 2.476563-3.039063.542968-6.125.832031-9.214844.851562-1.566406 0-3.132813-.085938-4.691406-.253906-1.539063-.171875-3.074219-.34375-4.695313-.683594-.160156-.070312-.335937-.097656-.511718-.085938-.769532-.171874-1.449219-.339843-2.132813-.511718h-.171875c-.683594-.257813-1.277344-.425782-1.960938-.683594-1.621093-.511719-3.242187-1.109375-4.863281-1.789062-2.730469-1.199219-5.382812-2.566407-7.9375-4.097657l-15.785156-12.542969c-2.476563-2.390624-4.949219-5.035156-7.511719-7.9375-1.023437-1.195312-2.046875-2.390624-3.070312-3.667968-1.023438-1.28125-2.132813-2.648438-3.15625-4.011719-3.757813-4.695313-7.425782-9.984375-11.265625-15.785156 5.015625-2.722657 9.808593-5.832031 14.335937-9.304688 18.910156-13.519531 30.078125-35.378906 29.953125-58.621093 0-38.402344-27.136719-80.300782-68.269531-106.070313l-14.164062-6.828125-19.96875-9.554688c-2.558594-.855468-5.117188-1.707031-7.765626-2.390624.050782-1.457032.191407-2.910157.429688-4.351563.167969-1.453125.339844-2.902344.59375-4.183594.171875-1.023437.429688-2.046875.597656-3.070312.085938-.171875.085938-.257813.171875-.425781.234375-.980469.519531-1.949219.855469-2.902344.828125-2.925782 2.1875-5.671875 4.007812-8.105469.425782-.511719.769532-.941406 1.195313-1.367187 1.1875-1.417969 2.597656-2.628907 4.183594-3.582032.082031 0 .082031-.085937.167969-.085937 32.511718-19.113281 121.429687 69.289062 164.949218 141.226562 43.519532 71.9375 24.746094 100.179688-7.507812 119.722657zm0 0" fill="#7f8e94"/><path d="m443.980469 272.054688-4.351563 2.558593c-4.308594 2.351563-8.789062 4.378907-13.398437 6.058594-1.960938.683594-4.011719 1.28125-6.058594 1.792969h-.171875c-.683594-.257813-1.277344-.425782-1.960938-.683594-1.621093-.511719-3.242187-1.109375-4.863281-1.789062-2.730469-1.199219-5.382812-2.566407-7.9375-4.097657l-15.785156-12.542969c-2.476563-2.390624-4.949219-5.035156-7.511719-7.9375-1.023437-1.195312-2.046875-2.390624-3.070312-3.667968-1.023438-1.28125-2.132813-2.648438-3.15625-4.011719-3.757813-4.695313-7.425782-9.984375-11.265625-15.785156 5.015625-2.722657 9.808593-5.832031 14.335937-9.304688 18.910156-13.519531 30.078125-35.378906 29.953125-58.621093 0-38.402344-27.136719-80.300782-68.269531-106.070313l-14.164062-6.828125-19.96875-9.554688c-2.558594-.855468-5.117188-1.707031-7.765626-2.390624.050782-1.457032.191407-2.910157.429688-4.351563.167969-1.453125.339844-2.902344.59375-4.183594.171875-1.023437.429688-2.046875.597656-3.070312.085938-.171875.085938-.257813.171875-.425781.234375-.980469.519531-1.949219.855469-2.902344.828125-2.925782 2.1875-5.671875 4.007812-8.105469.425782-.511719.769532-.941406 1.195313-1.367187 1.1875-1.417969 2.597656-2.628907 4.183594-3.582032.082031 0 .082031-.085937.167969-.085937 40.703124 14.25 105.558593 83.113281 140.714843 141.226562 43.519531 72.019531 24.746094 100.179688-7.507812 119.722657zm0 0" fill="#cfd8dc"/><path d="m180.46875 43.359375-14.761719 7.085937-.425781.253907c-40.449219 25.34375-67.925781 65.195312-71.679688 103.851562-.410156 3.140625-.613281 6.304688-.597656 9.472657-.128906 26.234374 12.585938 50.871093 34.046875 65.960937-28.5 38.996094-45.3125 38.570313-66.132812 25.089844-23.296875-15.105469-42.921875-40.789063-7.679688-95.148438 35.242188-54.355469 101.800781-133.546875 125.097657-118.441406.824218.484375 1.550781 1.121094 2.132812 1.875zm0 0" fill="#e91e63"/><path d="m450.125 255.074219c-20.90625 13.566406-37.71875 13.90625-66.390625-25.429688 21.167969-15.136719 33.671875-39.601562 33.535156-65.621093.003907-3.109376-.164062-6.214844-.511719-9.300782-3.839843-38.828125-31.316406-78.679687-71.765624-104.023437l-.425782-.253907-14.25-6.828124c.667969-.839844 1.476563-1.5625 2.386719-2.132813 23.296875-15.105469 89.859375 64.085937 125.101563 118.441406 35.242187 54.359375 15.613281 80.042969-7.679688 95.148438zm0 0" fill="#e91e63"/><path d="m184.652344 50.785156-14.847656 7.167969c-41.132813 25.769531-68.269532 67.667969-68.269532 106.070313-.101562 23.453124 11.273438 45.476562 30.464844 58.964843-1.707031 2.472657-3.328125 4.777344-4.949219 6.996094-21.460937-15.089844-34.175781-39.726563-34.046875-65.960937-.015625-3.167969.1875-6.332032.597656-9.472657 3.753907-38.65625 31.230469-78.507812 71.679688-103.851562l.425781-.253907 14.761719-7.085937c1.988281 2.09375 3.425781 4.644531 4.183594 7.425781zm0 0" fill="#ad1457"/><path d="m132 222.988281c4.371094 3.335938 8.992188 6.332031 13.824219 8.960938-1.621094 2.386719-3.15625 4.777343-4.777344 6.996093-4.867187-2.65625-9.542969-5.652343-13.996094-8.960937 1.621094-2.21875 3.242188-4.523437 4.949219-6.996094zm0 0" fill="#95a5a5"/><path d="m211.703125 39.179688c-2.644531.683593-5.207031 1.535156-7.765625 2.390624l-19.285156 9.214844c-.757813-2.78125-2.195313-5.332031-4.183594-7.425781l20.226562-9.726563.511719-.171874c2.816407-.9375 5.546875-1.789063 8.363281-2.558594.378907-.074219.75-.1875 1.109376-.339844.53125 2.84375.875 5.722656 1.023437 8.617188zm0 0" fill="#7f8e94"/><path d="m417.269531 164.023438c.136719 26.019531-12.367187 50.484374-33.535156 65.621093-1.621094-2.21875-3.242187-4.523437-4.949219-7 18.910156-13.519531 30.078125-35.378906 29.953125-58.621093 0-38.402344-27.136719-80.300782-68.269531-106.070313l-14.164062-6.828125c.738281-2.777344 2.109374-5.351562 4.011718-7.507812l14.25 6.828124.425782.253907c40.449218 25.34375 67.925781 65.195312 71.765624 104.023437.347657 3.085938.515626 6.191406.511719 9.300782zm0 0" fill="#ad1457"/><path d="m309.410156 33.632812 20.90625 9.984376c-1.902344 2.15625-3.273437 4.730468-4.011718 7.507812l-19.96875-9.554688c-2.558594-.855468-5.117188-1.707031-7.765626-2.390624.152344-2.863282.496094-5.714844 1.023438-8.535157.464844.074219.921875.1875 1.367188.34375 2.558593.683594 5.289062 1.535157 7.9375 2.472657zm0 0" fill="#7f8e94"/><path d="m383.734375 229.644531c-4.578125 3.46875-9.394531 6.605469-14.421875 9.386719-1.621094-2.21875-3.242188-4.609375-4.863281-7.082031 5.015625-2.722657 9.808593-5.832031 14.335937-9.304688 1.707032 2.476563 3.328125 4.78125 4.949219 7zm0 0" fill="#95a5a5"/><path d="m417.269531 408.417969c0 18.851562-15.28125 34.132812-34.132812 34.132812-4.550781.019531-9.054688-.914062-13.226563-2.730469-.171875-.085937-.257812-.085937-.425781-.171874-3.800781-1.636719-7.269531-3.949219-10.242187-6.828126l6.058593-53.503906c1.351563-.792968 2.746094-1.507812 4.183594-2.132812 2.542969-1.101563 5.207031-1.902344 7.933594-2.386719 1.886719-.34375 3.800781-.515625 5.71875-.511719 9.054687 0 17.734375 3.59375 24.136719 9.996094 6.402343 6.402344 9.996093 15.082031 9.996093 24.136719zm0 0" fill="#7f8e94"/><path d="m389.964844 408.417969c.019531 13.5625-8.03125 25.839843-20.480469 31.230469-3.800781-1.636719-7.269531-3.949219-10.242187-6.828126l6.058593-53.503906c1.351563-.792968 2.746094-1.507812 4.183594-2.132812 12.449219 5.390625 20.5 17.667968 20.480469 31.234375zm0 0" fill="#cfd8dc"/><path d="m408.738281 164.023438c0 30.292968-16.898437 52.90625-44.289062 67.925781-7.480469 4.085937-15.304688 7.511719-23.382813 10.238281v.085938c-27.769531 8.824218-56.792968 13.0625-85.929687 12.542968-4.265625 0-8.53125-.085937-12.800781-.253906-24.847657-.480469-49.488282-4.621094-73.128907-12.289062v-.085938c-8.078125-2.726562-15.902343-6.152344-23.382812-10.238281-27.390625-15.019531-44.289063-37.632813-44.289063-67.925781.003906-2.824219.171875-5.644532.515625-8.449219 3.496094-35.925781 29.609375-73.726563 67.753907-97.621094l34.132812-16.382813c2.558594-.855468 5.121094-1.707031 7.765625-2.390624 9.992187-2.921876 20.257813-4.8125 30.632813-5.632813 4.253906-.414063 8.527343-.613281 12.800781-.597656 14.699219.011719 29.324219 2.109375 43.433593 6.230469 2.648438.683593 5.207032 1.535156 7.765626 2.390624l34.132812 16.382813c38.144531 23.894531 64.257812 61.695313 67.757812 97.621094.339844 2.804687.511719 5.625.511719 8.449219zm0 0" fill="#cfd8dc"/><path d="m383.136719 164.023438c0 30.292968-16.894531 52.90625-44.289063 67.925781-7.480468 4.085937-15.304687 7.511719-23.378906 10.238281v.085938c-23.640625 7.667968-48.285156 11.808593-73.132812 12.289062-24.847657-.480469-49.488282-4.621094-73.128907-12.289062v-.085938c-8.078125-2.726562-15.902343-6.152344-23.382812-10.238281-27.390625-15.019531-44.289063-37.632813-44.289063-67.925781.003906-2.824219.171875-5.644532.515625-8.449219 3.496094-35.925781 29.609375-73.726563 67.753907-97.621094l34.132812-16.382813c2.558594-.855468 5.121094-1.707031 7.765625-2.390624 9.992187-2.921876 20.257813-4.8125 30.632813-5.632813 10.378906.820313 20.644531 2.710937 30.636718 5.632813 2.644532.683593 5.203125 1.535156 7.765625 2.390624l34.132813 16.382813c38.144531 23.894531 64.253906 61.695313 67.753906 97.621094.339844 2.804687.511719 5.625.511719 8.449219zm0 0" fill="#f5f5f5"/><path d="m365.8125 346.976562c.171875 3.414063.257812 6.828126.257812 10.242188 0 3.410156-.085937 6.910156-.171874 10.664062-.085938 3.753907-.339844 7.59375-.597657 11.433594-.082031 2.136719-.253906 4.269532-.425781 6.402344s-.339844 4.351562-.511719 6.570312c-.425781 4.4375-.851562 8.960938-1.363281 13.484376.011719.339843-.015625.6875-.085938 1.023437-1.023437 8.703125-2.304687 17.492187-3.671874 26.023437-.339844 2.304688-.765626 4.609376-1.191407 6.914063-.429687 2.304687-.769531 4.523437-1.28125 6.742187-.34375 2.21875-.855469 4.351563-1.367187 6.570313-.253906 1.449219-.597656 2.902344-.9375 4.265625-.511719 2.390625-1.109375 4.777344-1.707032 7.082031-.171874.511719-.253906 1.109375-.425781 1.792969-5.035156 19.199219-11.09375 33.28125-17.75 35.753906-.65625.238282-1.351562.355469-2.046875.34375-6.367187-.65625-12.007812-4.386718-15.105468-9.984375-4.265626-6.519531-7.570313-13.617187-9.8125-21.078125-7.929688 2.007813-16.003907 3.40625-24.148438 4.179688-9.046875.855468-18.519531 1.28125-28.332031 1.28125-4.351563 0-8.617188-.085938-12.800781-.257813-13.375-.28125-26.679688-2.027343-39.679688-5.203125-.425781 1.449219-.9375 2.816406-1.449219 4.179688-6.058593 16.640625-14.25 26.882812-23.46875 26.882812-.515625-.015625-1.027343-.074218-1.535156-.171875-3.15625-.855469-6.144531-4.351562-9.042969-9.8125-4.929687-10.609375-8.621094-21.746093-11.011718-33.195312-.167969-.769531-.339844-1.453125-.425782-2.046875-1.195312-5.464844-2.386718-10.925782-3.328125-16.386719-3.367187-18.515625-5.730469-37.203125-7.082031-55.976563-.097656-.621093-.15625-1.25-.171875-1.878906l-.253906-4.09375c-.171875-2.21875-.257813-4.355468-.339844-6.574218-.085937-1.109376-.085937-2.300782-.085937-3.410157-.171876-4.011719-.257813-7.9375-.257813-11.519531 0-1.109375 0-2.21875.085937-3.246094 0-2.472656.085938-4.949218.171876-7.335937.527343-28.179688 5.660156-56.082031 15.1875-82.605469.171874-.425781.34375-.9375.511718-1.363281.179688-.382813.324219-.785157.425782-1.195313.25-.726562.535156-1.4375.855468-2.132812.171875-.339844.253906-.597656.425782-.9375.175781-.5625.40625-1.105469.683593-1.621094 2.132813.851562 4.351563 1.703125 6.65625 2.472656v.085938c23.640625 7.667968 48.28125 11.808594 73.128907 12.289062 4.269531.167969 8.535156.253906 12.800781.253906 23.558593.246094 47.054687-2.390624 69.972656-7.851562 5.546875-1.363281 10.839844-2.898438 15.957031-4.691406v-.085938c2.304688-.769531 4.523438-1.621094 6.65625-2.472656 1.195313 2.558594 2.21875 5.203125 3.242188 7.847656 1.027344 2.648438 1.964844 5.292969 2.902344 8.023438.257812-.085938.597656-.257813.9375-.34375 5.082031 12.542968 8.414062 25.722656 9.898437 39.167968.429687 3.5.683594 7.085938.941406 10.667969-.171875.171875-.425781.257813-.597656.425781.339844 3.328126.683594 6.65625.765625 9.898438.171875 2.5625.257812 5.121094.257812 7.679688l-.257812 6.488281zm0 0" fill="#cfd8dc"/><path d="m340.214844 346.976562c.171875 3.414063.253906 6.828126.253906 10.242188 0 3.410156-.082031 6.910156-.167969 10.664062-.085937 3.753907-.34375 7.59375-.597656 11.433594-.085937 2.136719-.257813 4.269532-.425781 6.402344-.171875 2.132812-.34375 4.351562-.515625 6.570312-.425781 4.4375-.851563 8.960938-1.363281 13.484376.015624.339843-.015626.6875-.085938 1.023437-1.023438 8.703125-2.304688 17.492187-3.667969 26.023437-.34375 2.304688-.769531 4.609376-1.195312 6.914063s-.769531 4.523437-1.28125 6.742187c-.339844 2.21875-.851563 4.351563-1.363281 6.570313-.257813 1.449219-.597657 2.902344-.941407 4.265625-.511719 2.390625-1.109375 4.777344-1.703125 7.082031-.171875.511719-.257812 1.109375-.429687 1.792969-2.140625 9.015625-5.257813 17.773438-9.300781 26.113281-4.265626-6.519531-7.570313-13.617187-9.8125-21.078125-7.929688 2.007813-16.003907 3.40625-24.148438 4.179688-.511719-1.363282-1.023438-2.730469-1.453125-4.179688-13.003906 3.132813-26.304687 4.878906-39.679687 5.203125-4.179688.171875-8.445313.257813-12.800782.257813-9.457031.058594-18.914062-.367188-28.328125-1.28125-8.144531-.773438-16.21875-2.171875-24.148437-4.179688-2.234375 7.480469-5.570313 14.582032-9.898438 21.078125-4.929687-10.609375-8.621094-21.746093-11.011718-33.195312-.167969-.769531-.339844-1.453125-.425782-2.046875-1.195312-5.464844-2.386718-10.925782-3.328125-16.386719-3.367187-18.515625-5.730469-37.203125-7.082031-55.976563-.097656-.621093-.15625-1.25-.171875-1.878906l-.253906-4.09375c-.171875-2.21875-.257813-4.355468-.339844-6.574218-.085937-1.109376-.085937-2.300782-.085937-3.410157-.171876-4.011719-.257813-7.9375-.257813-11.519531 0-1.109375 0-2.21875.085937-3.246094 0-2.472656.085938-4.949218.171876-7.335937.527343-28.179688 5.660156-56.082031 15.1875-82.605469 22.886718 5.460938 46.359374 8.097656 69.886718 7.851562 4.269532 0 8.535156-.085937 12.800782-.253906 24.847656-.480468 49.492187-4.621094 73.132812-12.289062v-.085938c2.304688-.769531 4.523438-1.621094 6.65625-2.472656 1.109375 2.386719 2.046875 4.777344 2.984375 7.25.085937.171875.171875.429688.257813.597656 1.023437 2.648438 1.960937 5.292969 2.902343 8.023438.253907-.085938 11.347657 49.75 11.175781 49.917968.34375 3.328126.683594 6.65625.769532 9.898438.171875 2.5625.253906 5.121094.253906 7.679688l-.253906 6.488281zm0 0" fill="#f5f5f5"/><path d="m306.335938 412.683594c.195312 11.53125-8.949219 21.058594-20.480469 21.332031-.613281.019531-1.230469-.015625-1.839844-.109375 1.25 3.453125 1.875 7.105469 1.839844 10.777344 0 16.964844-13.753907 30.71875-30.71875 30.71875-16.964844 0-30.71875-13.753906-30.71875-30.71875-.03125-3.671875.589843-7.324219 1.84375-10.777344-.613281.09375-1.226563.128906-1.84375.109375-11.78125 0-21.335938-9.550781-21.335938-21.332031s9.554688-21.332032 21.335938-21.332032h61.4375c11.53125.273438 20.675781 9.800782 20.480469 21.332032zm0 0" fill="#549414"/><path d="m280.738281 410.550781c.902344 9.496094-5.894531 18-15.359375 19.199219-.464844.015625-.929687-.015625-1.382812-.09375.941406 3.144531 1.410156 6.410156 1.382812 9.695312 0 15.929688-10.292968 28.796876-23.042968 28.796876-12.746094 0-23.039063-12.867188-23.039063-28.796876-.027344-3.285156.4375-6.550781 1.382813-9.695312-.457032.078125-.921876.109375-1.382813.09375-8.984375-2.015625-15.367187-9.992188-15.367187-19.199219s6.382812-17.183593 15.367187-19.199219h46.082031c9.464844 1.195313 16.269532 9.699219 15.359375 19.199219zm0 0" fill="#60a917"/><path d="m347.722656 265.3125c-2.132812.855469-4.351562 1.707031-6.65625 2.476562v.082032c-27.769531 8.828125-56.792968 13.066406-85.929687 12.546875-29.136719.519531-58.160157-3.71875-85.929688-12.546875v-.082032c-2.304687-.769531-4.523437-1.621093-6.65625-2.476562 1.960938-4.949219 4.265625-9.726562 6.65625-14.507812 27.769531 8.828124 56.792969 13.066406 85.929688 12.546874 29.136719.519532 58.160156-3.71875 85.929687-12.546874 2.390625 4.78125 4.695313 9.558593 6.65625 14.507812zm0 0" fill="#cfd8dc"/><path d="m297.71875 344.929688c.003906 1.625-.082031 3.246093-.257812 4.863281-.144532 3.261719-.484376 6.507812-1.023438 9.726562-4.523438 30.636719-21.332031 31.832031-41.300781 31.832031-20.136719 0-36.949219-1.195312-41.386719-32.429687-.425781-2.8125-.769531-5.886719-.9375-9.214844-.171875-1.585937-.257812-3.183593-.257812-4.777343l.257812-3.839844 3.242188-43.09375c1.28125-8.535156 2.902343-17.066406 4.949218-25.34375.597656-2.816406 1.28125-5.632813 2.046875-8.363282.769531-2.730468 1.535157-5.546874 2.390625-8.191406.171875-.855468.425782-1.621094.683594-2.476562 7.679688-23.808594 17.832031-41.472656 29.011719-41.472656 11.179687 0 21.332031 17.664062 29.011719 41.472656.257812.855468.515624 1.621094.683593 2.476562.855469 2.644532 1.621094 5.460938 2.390625 8.191406.769532 2.730469 1.449219 5.546876 2.132813 8.363282 1.960937 8.277344 3.585937 16.808594 4.863281 25.34375l3.242188 43.179687zm0 0" fill="#f57c00"/><path d="m272.203125 344.929688c0 1.707031-.058594 3.328124-.179687 4.863281-.117188 3.5-.355469 6.742187-.714844 9.726562-3.175782 30.636719-14.96875 31.832031-28.972656 31.832031-14.003907 0-25.914063-1.195312-29.011719-32.429687-.300781-2.8125-.539063-5.886719-.65625-9.214844-.121094-1.535156-.179688-3.15625-.179688-4.777343l.179688-3.839844 2.277343-43.09375c.894532-8.535156 2.03125-17.066406 3.464844-25.34375.417969-2.816406.902344-5.632813 1.441406-8.363282.539063-2.730468 1.074219-5.546874 1.707032-8.191406.121094-.855468.296875-1.621094.476562-2.476562 5.335938-23.808594 12.460938-41.472656 20.300782-41.472656 7.84375 0 14.96875 17.664062 20.351562 41.472656.179688.855468.359375 1.621094.480469 2.476562.597656 2.644532 1.132812 5.460938 1.707031 8.191406.570312 2.730469 1.023438 5.546876 1.5 8.363282 1.375 8.277344 2.507812 16.808594 3.414062 25.34375l2.277344 43.179687zm0 0" fill="#ff9801"/><path d="m184.96875 365.246094c36.019531-22.398438 59.167969-50.285156 51.703125-62.292969-5.359375-8.617187-25.046875-6.707031-49.050781 3.34375" fill="#f5f5f5"/><path d="m325.304688 365.246094c-36.015626-22.398438-59.167969-50.285156-51.703126-62.292969 5.402344-8.695313 25.378907-6.679687 49.664063 3.601563" fill="#f5f5f5"/><path d="m37.648438 279.359375c12.023437 7.988281 26 12.535156 40.421874 13.148437 11.148438-.089843 22.046876-3.328124 31.4375-9.34375.296876-.175781.582032-.375.851563-.589843l16.410156-13.089844c8.136719-8.121094 15.46875-17.011719 21.886719-26.546875 2.902344 1.402344 5.863281 2.757812 8.96875 4.019531-16.941406 39.574219-24.332031 82.578125-21.570312 125.535157 1.15625 29.089843 4.949218 58.011718 11.332031 86.417968l.742187 3.503906c3.5 16.914063 10.007813 48.402344 29.609375 48.402344 8.808594 0 20.867188-5.410156 30.378907-29.574218 15.503906 2.875 31.253906 4.207031 47.019531 3.976562 15.765625.222656 31.515625-1.109375 47.019531-3.988281 9.503906 24.175781 21.570312 29.585937 30.378906 29.585937 18.0625 0 24.40625-26.886718 27.808594-41.335937l.707031-2.933594c1.605469-6.28125 3.039063-12.800781 4.363281-19.492187 15.839844 7.28125 34.519532 4.171874 47.148438-7.84375 12.632812-12.019532 16.664062-30.519532 10.179688-46.703126-6.480469-16.183593-22.171876-26.785156-39.605469-26.757812-2.871094.035156-5.730469.363281-8.53125.980469.945312-18.734375.472656-37.511719-1.410157-56.171875-2.824218-22.292969-9.679687-43.882813-20.230468-63.71875 3.003906-1.230469 5.878906-2.5625 8.695312-3.902344 6.585938 9.753906 14.125 18.832031 22.507813 27.09375l15.789062 12.542969c.269531.214843.554688.414062.851563.589843 9.390625 6.015626 20.289062 9.257813 31.4375 9.34375 14.425781-.617187 28.40625-5.167968 40.429687-13.15625 46.082031-27.914062 49.195313-67.226562 10.394531-131.414062-37.785156-62.363281-134.425781-169.667969-176.871093-144.058594-8.324219 5.691406-13.757813 14.722656-14.890625 24.746094-23.816406-5.367188-48.527344-5.367188-72.34375 0-1.121094-10.023438-6.554688-19.058594-14.882813-24.746094-42.496093-25.601562-139.09375 81.6875-176.835937 144.03125-38.800782 64.238282-35.695313 103.492188 10.402344 131.449219zm140.183593 214.390625c-1.449219-.445312-6.671875-4.265625-12.996093-34.808594l-.808594-3.820312c-6.152344-27.394532-9.808594-55.292969-10.921875-83.347656-2.707031-40.816407 4.390625-81.691407 20.699219-119.210938 13.507812 3.988281 27.335937 6.800781 41.328124 8.40625l-.316406 1.085938c-2.449218 9.070312-4.460937 18.855468-6.117187 28.609374-8.355469 1.792969-16.515625 4.386719-24.371094 7.75-2.8125 1.175782-4.785156 3.765626-5.171875 6.789063s.871094 6.023437 3.292969 7.871094c2.425781 1.847656 5.652343 2.261719 8.464843 1.082031 25.753907-10.785156 37.488282-8.351562 38.511719-6.707031.199219.882812.140625 1.804687-.160156 2.65625-.054687.179687-.179687.304687-.214844.484375-.035156.179687 0 .15625 0 .230468-1.890625 5.152344-4.773437 9.882813-8.480469 13.925782-11.585937 13.085937-25.113281 24.3125-40.109374 33.28125-2.589844 1.609375-4.125 4.480468-4.027344 7.527344.097656 3.050781 1.816406 5.816406 4.503906 7.253906 2.691406 1.441406 5.945312 1.335937 8.535156-.273438 5.632813-3.507812 10.992188-7.195312 16.070313-10.964844 1.003906 8.335938 3.925781 16.324219 8.53125 23.347657-11.640625 4.78125-19.078125 16.304687-18.640625 28.882812s8.65625 23.558594 20.605468 27.519531c-.09375 1.117188-.136718 2.253907-.136718 3.414063.011718 7.59375 2.125 15.03125 6.109375 21.496094-10.191407-1.171875-20.195313-3.628907-29.765625-7.320313-4.359375-1.757812-9.316406.339844-11.089844 4.691406-1.773438 4.351563.304688 9.320313 4.648438 11.109376 1.84375.753906 3.761718 1.433593 5.707031 2.101562-4.898438 11.542969-10.179688 16.9375-13.679688 16.9375zm99.621094-65.3125c-1.957031 2.347656-2.507813 5.5625-1.445313 8.429688.898438 2.503906 1.34375 5.148437 1.316407 7.808593 0 12.253907-9.933594 22.1875-22.1875 22.1875-12.253907 0-22.1875-9.933593-22.1875-22.1875-.027344-2.660156.417969-5.304687 1.316406-7.808593.992187-2.902344.375-6.117188-1.632813-8.441407-1.683593-1.960937-4.144531-3.085937-6.730468-3.078125-.5.003906-.996094.046875-1.484375.136719-7.070313 0-12.800781-5.730469-12.800781-12.800781 0-7.070313 5.730468-12.800782 12.800781-12.800782h61.4375c7.070312.101563 12.71875 5.914063 12.617187 12.984376-.101562 7.070312-5.914062 12.71875-12.984375 12.617187-3.015625-.527344-6.082031.601563-8.035156 2.960937zm-22.316406-45.621094c-17.066407 0-28.289063-.066406-32.425781-21.570312 12.359374 2.878906 25 4.390625 37.691406 4.503906 9.070312.035156 18.109375-1.089844 26.898437-3.34375-4.242187 20.324219-15.378906 20.410156-32.164062 20.410156zm-29.464844-38.460937c2.925781-2.90625 5.632813-5.828125 8.019531-8.703125 3.574219-4.179688 6.644532-8.761719 9.15625-13.652344 4.484375.691406 9.007813 1.0625 13.542969 1.109375 3.738281-.023437 7.46875-.289063 11.171875-.792969 2.496094 4.78125 5.519531 9.269532 9.019531 13.378906 2.8125 3.339844 5.796875 6.535157 8.933594 9.574219-19.722656 4.605469-40.273437 4.292969-59.84375-.914062zm40.6875-45.90625c-1.308594 2.175781-2.144531 4.601562-2.449219 7.125-5.851562.601562-11.753906.5-17.578125-.300781-.332031-2.414063-1.152343-4.738282-2.417969-6.824219-4.0625-5.714844-10.632812-9.113281-17.644531-9.132813.851563-4.71875 1.824219-9.292968 2.890625-13.839844 8.820313 2.601563 17.964844 3.941407 27.164063 3.976563 8.421875.015625 16.796875-1.25 24.839843-3.746094 1.050782 4.488281 1.988282 8.976563 2.839844 13.601563-7.011718.015625-13.585937 3.421875-17.644531 9.140625zm9.597656-42.429688.855469 3.019531c-14.132812 4.355469-29.25 4.316407-43.359375-.109374l.777344-2.6875c9.421875-29.167969 18.285156-35.558594 20.90625-35.558594 2.621093 0 11.484375 6.390625 20.820312 35.335937zm107.179688 126.796875c11.054687-.054687 20.898437 6.992188 24.40625 17.476563 3.507812 10.484375-.109375 22.039062-8.972657 28.648437-8.863281 6.605469-20.96875 6.777344-30.015624.425782 1.996093-12.902344 3.558593-26.609376 4.71875-41.3125.085937-1.125.144531-2.191407.230468-3.300782 3.054688-1.261718 6.328125-1.921875 9.632813-1.9375zm-26.941407-70.433594c2.339844 24.726563 2.359376 49.613282.0625 74.34375-1.75 25.488282-5.675781 50.785157-11.742187 75.605469l-.785156 3.234375c-5.597657 23.761719-9.824219 27.644532-11.195313 28.160156-3.578125 0-8.867187-5.386718-13.75-16.976562 2.203125-.75 4.34375-1.554688 6.417969-2.414062 4.351563-1.8125 6.40625-6.8125 4.59375-11.160157-1.816406-4.351562-6.8125-6.40625-11.164063-4.589843-9.742187 3.832031-19.941406 6.375-30.34375 7.566406 3.96875-6.457032 6.082032-13.886719 6.101563-21.46875 0-1.152344-.042969-2.285156-.136719-3.414063 11.9375-3.964843 20.148438-14.933593 20.59375-27.503906.445313-12.570313-6.972656-24.09375-18.597656-28.890625 4.621094-7.015625 7.542969-15.007812 8.535156-23.347656 5.074219 3.769531 10.425782 7.457031 16.058594 10.957031 1.347656.84375 2.90625 1.289063 4.496094 1.289063 3.8125 0 7.160156-2.523438 8.210937-6.1875 1.046875-3.664063-.460937-7.578126-3.695312-9.59375-14.996094-8.96875-28.523438-20.195313-40.105469-33.277344-3.636719-3.984375-6.488281-8.617188-8.40625-13.65625.003906-.046875.003906-.09375 0-.144532-.050781-.132812-.109375-.265624-.171875-.390624-.390625-.976563-.488281-2.042969-.28125-3.074219 1.050781-1.707031 12.960937-4.101563 39.089844 6.949219 4.300781 1.660156 9.144531-.390626 10.9375-4.636719 1.796875-4.242188-.101563-9.148438-4.289063-11.074219-8.054687-3.488281-16.429687-6.175781-25.011718-8.023438-1.65625-9.753906-3.667969-19.558593-6.144532-28.722656l-.28125-.972656c14.070313-1.621094 27.972656-4.453125 41.550782-8.472656 10.078124 18.609375 16.671874 38.90625 19.453124 59.886718zm-314.347656-155.632812c46.890625-77.429688 130.011719-152.464844 153.417969-138.246094 4.3125 3.679688 6.902344 8.980469 7.160156 14.644532-.417969.132812-.851562.226562-1.269531.375-4.457031 1.535156-6.824219 6.394531-5.289062 10.847656 1.539062 4.457031 6.394531 6.824218 10.851562 5.289062 31.367188-10.847656 65.46875-10.847656 96.835938 0 4.457031 1.535156 9.3125-.832031 10.851562-5.289062 1.535156-4.453125-.832031-9.3125-5.289062-10.847656-.425782-.148438-.851563-.242188-1.269532-.375.265625-5.664063 2.859375-10.96875 7.167969-14.652344 23.382813-14.097656 106.519531 60.824218 153.402344 138.246094 42.949219 71.066406 21.265625 92.332031-4.605469 108.007812-21.480469 12.945312-37.070312 14.15625-53.691406 4.128906l-14.730469-11.664062c-6.976563-6.972656-13.289063-14.574219-18.859375-22.714844 25.085938-14.640625 40.574219-41.4375 40.738281-70.476562 0-41.320313-28.363281-85.796876-72.269531-113.296876-3.980469-2.359374-9.121094-1.113281-11.578125 2.808594-2.460937 3.921875-1.34375 9.089844 2.515625 11.644532 38.445312 24.089843 64.265625 63.804687 64.265625 98.84375 0 43.082031-41.121094 72.832031-110.265625 80.382812-9.703125-26.957031-21.378906-40.789062-34.800781-40.789062s-25.046875 13.773437-34.789063 40.789062c-69.15625-7.507812-110.277344-37.289062-110.277344-80.382812 0-35.039063 25.820313-74.753907 64.265626-98.84375 2.664062-1.578126 4.265624-4.480469 4.179687-7.578126-.085937-3.101562-1.847656-5.90625-4.597656-7.335937-2.753907-1.429687-6.0625-1.253906-8.644531.460937-43.90625 27.5-72.269532 71.976563-72.269532 113.296876.164063 29.042968 15.660156 55.839843 40.746094 70.476562-5.40625 7.921875-11.507812 15.347656-18.234375 22.1875l-15.359375 12.210938c-16.632812 10.023437-32.214844 8.820312-53.667969-4.125-25.898437-15.699219-47.582031-36.964844-4.640625-108.023438zm0 0"/><path d="m195.402344 143.882812c0 9.425782-7.640625 17.066407-17.066406 17.066407-9.425782 0-17.066407-7.640625-17.066407-17.066407 0-9.425781 7.640625-17.066406 17.066407-17.066406 9.425781 0 17.066406 7.640625 17.066406 17.066406zm0 0"/><path d="m349.003906 143.882812c0 9.425782-7.640625 17.066407-17.066406 17.066407s-17.066406-7.640625-17.066406-17.066407c0-9.425781 7.640625-17.066406 17.066406-17.066406s17.066406 7.640625 17.066406 17.066406zm0 0"/><path d="m221.003906 195.082031c0 4.714844 3.820313 8.535157 8.53125 8.535157.609375 0 13.125-.230469 16.324219-17.066407h18.554687c3.199219 16.835938 15.71875 17.066407 16.324219 17.066407 4.394531-.003907 8.070313-3.351563 8.488281-7.726563.414063-4.378906-2.566406-8.355469-6.886718-9.1875-1.339844-2.6875-1.894532-5.699219-1.601563-8.6875-.292969-2.988281.261719-5.996094 1.601563-8.6875 4.320312-.828125 7.300781-4.804687 6.886718-9.183594-.417968-4.378906-4.09375-7.722656-8.488281-7.726562-.605469 0-13.125.230469-16.324219 17.066406h-18.554687c-3.199219-16.835937-15.714844-17.066406-16.324219-17.066406-4.394531.007812-8.066406 3.355469-8.476562 7.730469-.414063 4.378906 2.566406 8.351562 6.882812 9.179687 1.328125 2.691406 1.882813 5.699219 1.59375 8.6875.289063 2.988281-.265625 5.996094-1.59375 8.6875-4.023437.765625-6.9375 4.285156-6.9375 8.378906zm0 0"/></svg>